<svg id="enf8fghnec3b1" xmlns="http://www.w3.org/2000/svg" xmlns:xlink="http://www.w3.org/1999/xlink" viewBox="0 0 326.830000 326.830000" shape-rendering="geometricPrecision" text-rendering="geometricPrecision"><style><![CDATA[#enf8fghnec3b2_tr {animation: enf8fghnec3b2_tr__tr 4000ms linear infinite normal forwards}@keyframes enf8fghnec3b2_tr__tr { 0% {transform: translate(163.414993px,163.429977px) rotate(360deg);animation-timing-function: cubic-bezier(0.785000,0.135000,0.150000,0.860000)} 25% {transform: translate(163.414993px,163.429977px) rotate(450deg);animation-timing-function: cubic-bezier(0.785000,0.135000,0.150000,0.860000)} 50% {transform: translate(163.414993px,163.429977px) rotate(540deg);animation-timing-function: cubic-bezier(0.785000,0.135000,0.150000,0.860000)} 75% {transform: translate(163.414993px,163.429977px) rotate(630deg);animation-timing-function: cubic-bezier(0.785000,0.135000,0.150000,0.860000)} 100% {transform: translate(163.414993px,163.429977px) rotate(720deg)} }#enf8fghnec3b7 {animation: enf8fghnec3b7_c_o 4000ms linear infinite normal forwards}@keyframes enf8fghnec3b7_c_o { 0% {opacity: 1;animation-timing-function: cubic-bezier(0.445000,0.050000,0.550000,0.950000)} 37.500000% {opacity: 0.300000} 100% {opacity: 1} }#enf8fghnec3b12_tr {animation: enf8fghnec3b12_tr__tr 4000ms linear infinite normal forwards}@keyframes enf8fghnec3b12_tr__tr { 0% {transform: translate(163.414963px,198.947784px) rotate(360deg);animation-timing-function: cubic-bezier(0.785000,0.135000,0.150000,0.860000)} 25% {transform: translate(163.414963px,198.947784px) rotate(450deg);animation-timing-function: cubic-bezier(0.785000,0.135000,0.150000,0.860000)} 50% {transform: translate(163.414963px,198.947784px) rotate(540deg);animation-timing-function: cubic-bezier(0.785000,0.135000,0.150000,0.860000)} 75% {transform: translate(163.414963px,198.947784px) rotate(630deg);animation-timing-function: cubic-bezier(0.785000,0.135000,0.150000,0.860000)} 100% {transform: translate(163.414963px,198.947784px) rotate(720deg)} }#enf8fghnec3b12 {animation: enf8fghnec3b12_c_o 4000ms linear infinite normal forwards}@keyframes enf8fghnec3b12_c_o { 0% {opacity: 1} 37.500000% {opacity: 0.300000} 100% {opacity: 1} }]]></style><g id="enf8fghnec3b2_tr" transform="translate(163.414993,163.429977) rotate(360)"><g id="enf8fghnec3b2" transform="translate(-163.414993,-163.429977)"><path id="enf8fghnec3b3" d="M241.780000,283L241.780000,283.560000C241.772043,326.108575,258.668820,366.917193,288.752393,397.006393C318.835966,427.095592,359.641425,444.000001,402.190000,444" transform="matrix(1 0 0 1 -238.78000000000000 -120.14000000000000)" fill="none" stroke="rgb(241,85,48)" stroke-width="6" stroke-miterlimit="10"/><path id="enf8fghnec3b4" d="M402.190000,444C444.740308,444.002653,485.548336,427.099415,515.634072,397.009929C545.719807,366.920442,562.617958,326.110307,562.610000,283.560000C562.610000,283.370000,562.610000,283.190000,562.610000,283" transform="matrix(1 0 0 1 -238.78000000000000 -120.14000000000000)" fill="none" stroke="rgb(66,133,244)" stroke-width="6" stroke-miterlimit="10"/><path id="enf8fghnec3b5" d="M562.600000,283C562.296978,194.622867,490.567652,123.139481,402.190000,123.140000" transform="matrix(1 0 0 1 -238.78000000000000 -120.14000000000000)" fill="none" stroke="rgb(251,188,5)" stroke-width="6" stroke-miterlimit="10"/><path id="enf8fghnec3b6" d="M402.190000,123.140000C313.814617,123.144971,242.088504,194.625155,241.780000,283" transform="matrix(1 0 0 1 -238.78000000000000 -120.14000000000000)" fill="none" stroke="rgb(52,168,83)" stroke-width="6" stroke-miterlimit="10"/></g></g><g id="enf8fghnec3b7"><path id="enf8fghnec3b8" d="M470.390000,374.880000C468.172797,374.148386,466.010638,373.259461,463.920000,372.220000C460.300000,370.130000,458.570000,366.680000,458.030000,362.600000C457.180272,355.429917,456.939411,348.200742,457.310000,340.990000C457.430000,337.750000,457.500000,334.490000,457.370000,331.250000C457.238661,328.287200,458.429189,325.418944,460.620000,323.420000C465.040000,319.050000,469.420000,314.650000,473.810000,310.260000Q485.810000,298.260000,497.810000,286.260000C498.591677,285.461305,499.423356,284.713129,500.300000,284.020000C501.782580,282.833800,503.752534,282.449880,505.572049,282.992542C507.391563,283.535204,508.829389,284.935480,509.420000,286.740000C509.560000,287.150000,509.700000,287.560000,509.850000,287.960000L509.850000,340.830000C508.975614,343.324243,507.465951,345.547377,505.470000,347.280000Q494.280000,358.280000,483.200000,369.410000C480.660000,371.960000,477.950000,374.140000,474.310000,374.850000Z" transform="matrix(1 0 0 1 -238.78000000000000 -120.14000000000000)" fill="rgb(52,168,83)" stroke="none" stroke-width="1"/><path id="enf8fghnec3b9" d="M509.830000,245.310000C508.830000,248.310000,506.720000,250.510000,504.530000,252.700000Q482.230000,274.900000,459.970000,297.150000C458.756024,298.299966,457.413881,299.306573,455.970000,300.150000C454.621091,301.030941,452.878909,301.030941,451.530000,300.150000C450.193170,299.369017,448.948644,298.439816,447.820000,297.380000Q435.320000,285.140000,422.930000,272.790000C421.918310,271.812434,420.997834,270.744683,420.180000,269.600000C418.806247,267.806129,418.806247,265.313871,420.180000,263.520000C420.673128,262.763202,421.239161,262.056498,421.870000,261.410000Q453.040000,230.150000,484.230000,198.910000C485.890168,197.088128,487.886774,195.604256,490.110000,194.540000C495.110000,192.410000,499.650000,193.540000,503.920000,196.490000C506.886171,198.507143,508.918183,201.630820,509.560000,205.160000C509.630000,205.480000,509.730000,205.790000,509.820000,206.100000Z" transform="matrix(1 0 0 1 -238.78000000000000 -120.14000000000000)" fill="rgb(66,133,244)" stroke="none" stroke-width="1"/><path id="enf8fghnec3b10" d="M330.410000,374.880000C326.410000,374.100000,323.530000,371.630000,320.770000,368.830000Q309.530000,357.460000,298.150000,346.250000C295.788556,344.026278,294.501843,340.891512,294.620000,337.650000C294.690000,322.010000,294.620000,306.380000,294.620000,290.740000C294.603158,289.512925,294.676690,288.286276,294.840000,287.070000C295.060052,285.204547,296.171377,283.561763,297.821012,282.663408C299.470648,281.765052,301.453573,281.722774,303.140000,282.550000C304.529954,283.236983,305.794299,284.153125,306.880000,285.260000C313.220000,291.480000,319.470000,297.800000,325.790000,304.040000Q334.190000,312.330000,342.670000,320.560000C345.230439,322.902345,346.631112,326.252258,346.500000,329.720000C346.350000,340.370000,346.500000,351.020000,346.400000,361.720000C346.485541,365.396469,344.891726,368.911695,342.070000,371.270000C339.962311,372.996686,337.456300,374.168908,334.780000,374.680000C334.460000,374.750000,334.150000,374.840000,333.840000,374.920000Z" transform="matrix(1 0 0 1 -238.78000000000000 -120.14000000000000)" fill="rgb(66,133,244)" stroke="none" stroke-width="1"/><path id="enf8fghnec3b11" d="M294.650000,225.790000C294.650000,220.050000,294.650000,214.310000,294.650000,208.570000C294.650000,205.130000,295.380000,201.820000,297.700000,199.180000C301.550000,194.810000,306.310000,192.540000,312.250000,193.730000C314.908154,194.347289,317.323401,195.739362,319.190000,197.730000C322.640000,201.120000,326.060000,204.550000,329.480000,207.960000Q343.910000,222.350000,358.320000,236.720000Q370.380000,248.790000,382.320000,260.930000C383.245636,261.889136,384.060734,262.949099,384.750000,264.090000C385.715275,265.555317,385.715275,267.454683,384.750000,268.920000C384.079311,270.073870,383.266274,271.138880,382.330000,272.090000Q369.330000,285.020000,356.190000,297.870000C352.130000,301.870000,349.290000,301.820000,345.190000,297.800000Q328.840000,281.590000,312.580000,265.310000C307.820000,260.570000,303.100000,255.790000,298.310000,251.090000C295.725969,248.711013,294.330446,245.308283,294.500000,241.800000C294.660000,236.460000,294.500000,231.110000,294.500000,225.800000Z" transform="matrix(1 0 0 1 -238.78000000000000 -120.14000000000000)" fill="rgb(234,67,53)" stroke="none" stroke-width="1"/></g><g id="enf8fghnec3b12_tr" transform="translate(163.414963,198.947784) rotate(360)"><g id="enf8fghnec3b12" transform="translate(-163.414963,-198.947784)"><path id="enf8fghnec3b13" d="M437.700000,316.140000C437.798685,317.625129,437.256241,319.081356,436.210000,320.140000Q425.620000,330.670000,415,341.190000L406.100000,350.060000C403.550000,352.580000,400.510000,352.590000,397.990000,350.060000Q388.150000,340.220000,378.330000,330.350000C375.020000,327.020000,371.740000,323.670000,368.440000,320.350000C365.870000,317.740000,365.880000,314.760000,368.440000,312.170000C378.260000,302.370000,388.120000,292.620000,397.880000,282.780000C398.980767,281.574769,400.537741,280.888163,402.170000,280.888163C403.802259,280.888163,405.359233,281.574769,406.460000,282.780000C416.080000,292.610000,425.840000,302.300000,435.560000,312.040000C436.815742,313.046906,437.591959,314.534050,437.700000,316.140000Z" transform="matrix(1 0 0 1 -238.69887633999997 -117.47316283000001)" fill="rgb(251,188,5)" stroke="none" stroke-width="1"/></g></g></svg>