<svg id="eyxfvg7zo1ze1" xmlns="http://www.w3.org/2000/svg" xmlns:xlink="http://www.w3.org/1999/xlink" viewBox="0 0 238.430000 200.990000" shape-rendering="geometricPrecision" text-rendering="geometricPrecision"><style><![CDATA[#eyxfvg7zo1ze4_tr {animation: eyxfvg7zo1ze4_tr__tr 1000ms linear infinite reverse forwards}@keyframes eyxfvg7zo1ze4_tr__tr { 0% {transform: translate(119.215000px,138.302626px) rotate(0deg)} 100% {transform: translate(119.215000px,138.302626px) rotate(180deg)} }]]></style><path id="eyxfvg7zo1ze2" d="M473.760000,374.160000C471.304876,373.331946,468.912107,372.329390,466.600000,371.160000C462.600000,368.840000,460.670000,365.030000,460.070000,360.510000C459.128742,352.566836,458.861121,344.558282,459.270000,336.570000C459.410000,332.980000,459.490000,329.370000,459.340000,325.780000C459.184634,322.497333,460.505131,319.317137,462.940000,317.110000C467.830000,312.270000,472.680000,307.390000,477.550000,302.530000Q490.820000,289.260000,504.110000,275.990000C504.971902,275.097785,505.894073,274.265827,506.870000,273.500000C508.511403,272.189732,510.689911,271.765169,512.703214,272.363179C514.716517,272.961190,516.310017,274.506152,516.970000,276.500000C517.130000,276.950000,517.280000,277.410000,517.440000,277.860000L517.440000,336.420000C516.590000,339.320000,514.700000,341.490000,512.590000,343.570000Q500.210000,355.760000,487.930000,368.070000C485.110000,370.900000,482.110000,373.310000,478.080000,374.070000Z" transform="matrix(1 0 0 1 -279.00999999999999 -173.16999999999999)" fill="rgb(52,168,83)" stroke="none" stroke-width="1"/><path id="eyxfvg7zo1ze3" d="M517.440000,230.640000C516.380000,234.010000,514,236.410000,511.570000,238.820000Q486.880000,263.420000,462.220000,288.070000C460.887830,289.328722,459.422522,290.438600,457.850000,291.380000C456.353651,292.350748,454.426349,292.350748,452.930000,291.380000C451.449699,290.517179,450.071048,289.490739,448.820000,288.320000Q435,274.750000,421.250000,261.070000C420.139769,259.988023,419.135224,258.802660,418.250000,257.530000C416.741543,255.540245,416.741543,252.789755,418.250000,250.800000C418.800141,249.967324,419.426142,249.187333,420.120000,248.470000Q454.640000,213.830000,489.190000,179.240000C491.024807,177.218893,493.236056,175.574893,495.700000,174.400000C501.230000,172.040000,506.270000,173.330000,511,176.550000C514.283771,178.793988,516.534101,182.257696,517.250000,186.170000C517.330000,186.510000,517.440000,186.860000,517.530000,187.170000Z" transform="matrix(1 0 0 1 -279.00999999999999 -173.16999999999999)" fill="rgb(66,133,244)" stroke="none" stroke-width="1"/><g id="eyxfvg7zo1ze4_tr" transform="translate(119.215000,138.302626) rotate(180)"><g id="eyxfvg7zo1ze4" transform="translate(-119.109985,-136.218491)"><path id="eyxfvg7zo1ze5" d="M437.560000,309.090000C437.654707,310.731498,437.051860,312.336670,435.900000,313.510000Q424.170000,325.180000,412.410000,336.840000L402.550000,346.660000C399.730000,349.460000,396.360000,349.470000,393.550000,346.660000Q382.660000,335.750000,371.790000,324.820000C368.120000,321.130000,364.480000,317.420000,360.790000,313.720000C357.940000,310.840000,357.950000,307.540000,360.840000,304.660000C371.710000,293.820000,382.630000,283.010000,393.440000,272.110000C394.660120,270.774201,396.385842,270.013222,398.195000,270.013222C400.004158,270.013222,401.729880,270.774201,402.950000,272.110000C413.600000,283,424.420000,293.740000,435.180000,304.530000C436.560000,305.910000,437.610000,307.380000,437.560000,309.090000Z" transform="matrix(1 0 0 1 -279.00607360999999 -173.16999999999999)" fill="rgb(251,188,5)" stroke="none" stroke-width="1"/></g></g><path id="eyxfvg7zo1ze6" d="M318.720000,374.160000C314.300000,373.290000,311.100000,370.560000,308.040000,367.460000Q295.600000,354.880000,282.990000,342.460000C280.374916,339.994002,278.946894,336.522305,279.070000,332.930000C279.150000,315.610000,279.070000,298.290000,279.120000,280.930000C279.099934,279.572604,279.180152,278.215579,279.360000,276.870000C279.607779,274.804595,280.840931,272.987263,282.668659,271.993933C284.496387,271.000602,286.692116,270.954412,288.560000,271.870000C290.095593,272.635518,291.494374,273.649128,292.700000,274.870000C299.700000,281.760000,306.650000,288.760000,313.640000,295.670000Q322.940000,304.860000,332.340000,313.970000C335.171448,316.565019,336.721454,320.271874,336.580000,324.110000C336.420000,335.910000,336.530000,347.710000,336.470000,359.510000C336.563103,363.586147,334.796708,367.483257,331.670000,370.100000C329.338316,372.012896,326.563357,373.309252,323.600000,373.870000C323.250000,373.950000,322.910000,374.050000,322.600000,374.140000Z" transform="matrix(1 0 0 1 -279.00999999999999 -173.16999999999999)" fill="rgb(66,133,244)" stroke="none" stroke-width="1"/><path id="eyxfvg7zo1ze7" d="M279.100000,209C279.100000,202.640000,279.100000,196.280000,279.100000,189.930000C279.100000,186.120000,279.910000,182.460000,282.480000,179.530000C286.740000,174.690000,292.020000,172.180000,298.590000,173.530000C301.536469,174.227292,304.211569,175.778781,306.280000,177.990000C310.100000,181.740000,313.880000,185.540000,317.680000,189.320000Q333.680000,205.250000,349.620000,221.170000Q363,234.520000,376.250000,248C377.273787,249.059570,378.176045,250.230158,378.940000,251.490000C380.003806,253.118316,380.003806,255.221684,378.940000,256.850000C378.188129,258.121538,377.288551,259.299716,376.260000,260.360000Q361.820000,274.680000,347.260000,288.910000C342.760000,293.310000,339.620000,293.290000,335.120000,288.830000Q317.010000,270.830000,299,252.830000C293.730000,247.570000,288.500000,242.280000,283.190000,237.070000C280.340608,234.428223,278.806545,230.660799,279,226.780000C279.180000,220.860000,279,214.940000,279,209.020000Z" transform="matrix(1 0 0 1 -279.00999999999999 -173.16999999999999)" fill="rgb(234,67,53)" stroke="none" stroke-width="1"/></svg>